# xmcd
#
# Track frame offsets:
#	150
#	14490
#	28693
#	41273
#	55463
#	68228
#	81218
#	94553
#	107543
#	120573
#	134325
#	148565
#	160860
#	173290
#	186300
#	199655
#
# Disc length: 2830 seconds
#
# Revision: 1
# Processed by: cddbd v1.5.1PL0 Copyright (c) Steve Scherf et al.
# Submitted via: EasyCDDAExtractor 7.0.6.1
#
DISCID=cf0b0c10
DTITLE=Marimba Cuquita - 16 Exitos
DYEAR=1990
DGENRE=Marimba
TTITLE0=La cotorra gorrona
TTITLE1=Dandole sabor al caldo
TTITLE2=El travieso
TTITLE3=Saleroso
TTITLE4=La diablesa del rock
TTITLE5=Mi perro y sus pulgas
TTITLE6=Merecumbe de cuquita
TTITLE7=Cuidado con la cola
TTITLE8=Curado de calcetin
TTITLE9=El cha cha cha de los borrachitos
TTITLE10=Pancha baila en turcos
TTITLE11=El abrazo del oso
TTITLE12=Ojo al parche
TTITLE13=El gato pachucon
TTITLE14=Olga Darson
TTITLE15=Rudy Boogie
EXTD=
EXTT0=
EXTT1=
EXTT2=
EXTT3=
EXTT4=
EXTT5=
EXTT6=
EXTT7=
EXTT8=
EXTT9=
EXTT10=
EXTT11=
EXTT12=
EXTT13=
EXTT14=
EXTT15=
PLAYORDER=
